<svg version="1" xmlns="http://www.w3.org/2000/svg" width="533.333" height="533.333" viewBox="0 0 400.000000 400.000000"><path d="M266.3 44.5c-2.8 1.2-2.9 4-.8 12.2.9 3.2 1.8 8 2.1 10.8.4 2.7.8 5.3 1 5.6.2.3.6 3.3.9 6.5.4 3.2.8 6.9 1 8.1 1.1 6.8 2.2 45.2 1.6 56.9-.1 1.9-.7 2.1-6.8 2-26.1-.1-43.9 5.7-61.9 20.2l-4.2 3.3-3.3-3.1c-7.9-7.3-23.7-15-36.2-17.5-10-2.1-12.8-2.4-24.3-2.4l-10.1-.1.3-16.3c.4-25.5 1.9-48.3 3.8-58.3.2-1.2.7-3.7 1-5.5.7-4 1.4-7.5 2.2-10.9 2.6-11.1 1.8-12-10.1-12-8.9 0-9.5.1-11 2.4-.9 1.4-1.8 3.8-2.1 5.5-.5 3.5-1.1 7.2-1.9 11.6-1.7 9.7-2.5 14.8-3 20-1.1 11.6-1.7 26.2-1.9 45l-.2 21-2.9 1.4c-1.7.8-3.4 1.9-3.8 2.5-1.7 2.4.3 22.1 3.3 32.1.7 2.2 1.1 4.2 1 4.4-.1.2.2.7.7 1 .9.6 3.6 6.3 3.3 7-.1.2.3.7.8 1 2 1.3 5.7 10.3 6.8 16.6.5 2.9 1.2 6 1.4 6.2.3.4.5 1.3 1.3 6.3 1 6.2 2.9 7.3 14.7 8.6 16.5 1.8 37.2.3 46.3-3.4 1.6-.7 3.3-1.2 3.8-1.2s.9-.5.9-1.2c0-.6.3-.9.6-.5.4.3 4.2-1.2 8.5-3.3 4.3-2.2 9-4 10.3-4 1.4 0 7.6 2.5 13.7 5.5 10.8 5.2 18 7.8 24.4 8.6 5.4.7 28.8.4 35.7-.4 8-1 10.5-2.8 11.3-8.2.3-2.2 1-5.7 1.6-7.8.6-2.1 1.2-5 1.4-6.5.5-4 3-10.5 5.7-14.8 3.6-5.8 6.9-14.3 7.5-19.4.3-2.5.9-5 1.3-5.5 1.4-1.7 2.1-17 1-19.9-.5-1.4-2.1-3.1-3.5-3.6s-2.7-1.5-3-2.2c-.2-.7-.6-14.1-.9-29.8-.4-15.7-.8-29.9-1-31.5-.2-1.7-.7-5.9-1.1-9.5-.4-3.6-1.3-9.9-2.1-14s-1.7-9.1-2-11c-.7-5.5-1.4-6.9-3.7-8.2-2.7-1.5-16.3-1.7-19.4-.3zM122.5 55.7c-.1 1-.5 3.1-.8 4.8-1.1 4.9-1.9 9.8-2.3 13-.2 1.6-.5 5.4-.9 8.3-.3 2.8-.7 7.1-1 9.5-.3 2.3-.8 15.9-1.1 30.2-.6 25.1-1.2 29.1-3.7 26.6-1.6-1.6-1.1-39 .8-59.6 1.3-14.5 1.7-17.7 3.1-24 .4-1.7.8-3.9.9-5 .5-3.9 1-5 2.5-5.6 2-.9 2.7-.3 2.5 1.8zm157-.7c-.3.5-.3 1.6.2 2.2.4.7.8 2 1 2.8.1.8.7 4.2 1.2 7.5.6 3.3 1.3 8.2 1.6 11 .3 2.7.8 6.6 1 8.5 1.2 9.8 2.6 55.8 1.7 59.2-.7 2.9-3.2 2.1-3.3-1 0-1.5-.2-10.2-.4-19.3-.4-21.9-1.6-40.9-3-49.9-.4-2.5-.8-5.4-1-6.5-.1-1.1-.6-4.3-1.1-7-1.3-8.1-1.3-8.5 1.2-8.5.8 0 1.2.4.9 1zm-129 103.1c7.6 1.3 19.9 4.9 19.2 5.6-.3.3-5.2 0-10.9-.6s-12.7-1.3-15.7-1.5c-5.2-.3-7.4-1.7-6.5-4.1.5-1.3 3.8-1.2 13.9.6zm-23.5.6c0 3.3-1.1 4-7 4.8-1.4.2-5.3 1-8.7 1.8l-6.1 1.5-.4-2.9c-.3-1.6-.2-3.3.1-3.8.3-.5 4-1.2 8.1-1.5 4.1-.4 7.5-.8 7.7-.9.1-.2 1.6-.4 3.3-.5 2.3-.2 3 .2 3 1.5zm134.3-.2c.8 2 .2 2.2-7.8 2.9-6.4.6-10.7 1-20.7 2.1-2.1.3-3.8.3-3.8.1 0-1 14.2-4.7 21-5.5 10.9-1.2 10.7-1.2 11.3.4zm19.7-.1c10.9 1 11.3 1.1 12 3.2 1 2.8.1 4.5-2.4 4-1.1-.2-5-.9-8.6-1.6-8.2-1.5-9.4-2.2-9.8-5-.2-1.2 0-2 .5-1.7.4.3 4.2.8 8.3 1.1zm-118 15.2c8.1 1.4 20.5 4.4 27.8 6.6 3.2 1 3.3 1.2 2.7 4.5-1 5.7-5 13.5-8.6 17.1-4.7 4.7-10.2 7.7-19.2 10.3-7.7 2.3-7.8 2.3-11.3.4-2-1-4.2-3.1-4.9-4.6-.8-1.5-2.1-2.9-3-3.3-.9-.3-1.4-1-1-1.5.3-.5 0-1.3-.6-1.7-.9-.5-3.9-6.2-4.5-8.7-.1-.4-.3-.9-.4-1.2-.1-.3-.4-1-.5-1.5-.1-.6-.3-1.2-.4-1.5 0-.3-.1-.8-.2-1.3 0-.4-.4-1.2-.9-1.7-1-1.3-2.3-12.2-1.6-13.4.8-1.2 16.3-.3 26.6 1.5zm-36.3 2.2c0 2.9 1.8 13.7 2.3 13.7.1 0 .3.9.5 2 .7 3.5 5.8 15 7.5 16.5 1.4 1.3 1.6 2.3 1.1 4.6 0 .3-.7.2-1.3-.3-.7-.4-1.5-.8-1.8-.8-1.5-.1-10-4.8-10-5.5 0-.5-.9-1.2-2.1-1.5-1.1-.4-1.8-.9-1.5-1.2.7-.7-1.7-3.2-2.6-2.6-.5.2-.8 0-.8-.6 0-.5-.6-1.6-1.4-2.4-1.7-1.7-7.8-12.7-7.1-12.7.3 0 .1-.8-.4-1.8-1.3-2.5-2.1-7.2-1.3-7.3.4 0 1.4-.2 2.2-.4.8-.2 3.2-.6 5.4-1 6.5-1.1 7.9-1.4 8.3-1.9 1.2-1.2 3.1.8 3 3.2zm134.9.4c-.3 2.4-1 5.8-1.5 7.6-.5 1.8-1.1 3.6-1.2 4-2.1 8-10.1 21.1-15 24.5-1.1.9-3.3 1.3-4.7 1.1-11.1-2.1-17.2-3.8-20.2-5.9-7.2-5-14.5-17.9-13.8-24.2.3-2.6.8-2.9 9.3-5 5-1.2 10.1-2.2 11.6-2.3 1.4 0 3-.5 3.5-1 1.2-1.2 12.4-2.5 24.2-2.9l8.4-.2-.6 4.3zm20.7-1.6c8.9.9 9 1.2 6 9.8-4.3 12.3-12.9 21.7-23.2 25.6l-4.9 1.9 4.2-8.2c4.1-8.2 6.3-15.1 7.2-23.7.7-6.2 1.2-7.3 2.9-6.6.8.3 4.3.8 7.8 1.2zm-79.5 30.5c4.3 5 15.9 13.9 18.1 13.9.9 0 2.6.7 3.8 1.5 2.5 1.7 18.3 4.5 23.3 4.1 11.5-1 23.1-4 26.8-6.9 1-.8 1.2-.5.8 1.5-1.3 7.2-3.7 8-22.5 8.3-11.2.1-19.7-1.3-27.6-4.5-1.6-.6-3.9-1.4-5-1.6-1.1-.2-3.1-1.2-4.6-2.3-3.8-2.8-11.3-5.1-17-5.1-4.9 0-15.7 3.1-16.8 4.9-1.2 1.7-14.8 6.9-21.5 8.1-7 1.3-30.3.9-33.9-.5-2.1-.9-3.9-4-4.3-7.7-.3-2.1 0-2.6 1.1-2.2.8.4 1.5 1.1 1.5 1.7 0 .6.3.7.7.4.3-.4 1.7 0 3 .8 1.3.9 2.3 1.3 2.3 1 0-.3.9-.1 2 .5 3.4 1.8 8 2.4 20.5 2.4 12.4 0 17.9-1.1 27-5.7 5.7-2.8 12.2-8.3 15.2-12.8 1.4-2.2 2.8-3.9 3.1-3.9.3 0 2.1 1.8 4 4.1z"/><path d="M133.1 108.7c-.5 2.1-1.2 5.1-1.5 6.8-.3 1.6-1 4.8-1.5 7-1.6 6-1.4 6.5 1.9 6.5 2.3 0 3-.5 3.1-2 .1-1.1.3-2.5.4-3 .1-.6.3-1.5.4-2 0-.6.4-1 .9-1 .4 0 .8 2.1 1 4.6.1 2.6.5 5 .8 5.5.6 1.1 5.5 1.2 5.2.1 0-.4.9-2.7 2.1-5.2l2.2-4.5-.6 6.2c-.3 3.5-.2 6.3.2 6.4.4 0 1.6.2 2.5.4 2.3.4 2.5 0 3.2-6 .4-2.8.9-6.6 1.1-8.5.3-1.9.7-5.9 1-8.8l.6-5.2H152c-3.6 0-4.1.3-5.6 3.7-.9 2.1-1.7 4.5-1.9 5.3-.2.8-.4 1.7-.5 2-.1.3-.2.9 0 1.5.1.7-.2.7-.9 0-.5-.6-1.1-3.7-1.3-7l-.3-6-3.7-.3c-3.5-.3-3.7-.1-4.7 3.5zM255.2 106.9c.1 1.5-1 9.2-1.8 13.5-.2 1-.6 4.3-1 7.2-.5 4.8-.4 5.4 1.3 5.4 1.4 0 10.5-2.7 12.1-3.6.2-.1.5-1.3.8-2.8.5-2.9-.7-3.3-5.1-1.6-2.4.9-2.6.8-2.3-1.2.2-1.7 1.3-2.5 4.1-3.2 3.2-.8 3.7-1.3 3.7-3.8 0-2.6-.2-2.8-3.5-2.2-3.1.5-3.4.3-2.8-1.3.9-2.4 2.3-3.3 5.6-3.3 2.2 0 2.7-.4 2.7-2.6 0-2.5-.1-2.5-6.9-2.3-5.7.2-6.9.5-6.9 1.8zM160.4 107.2c-.4.6-.8 2.1-1 3.2-.1 1.2-.5 3.7-.8 5.6-2.8 17.3-3 19-1.9 20.1.7.7 4.3 1.2 8.1 1.3 3.9 0 6.8.4 6.5.8-.2.5-.1.8.4.8.4 0 3.8.3 7.6.6 6.3.6 6.7.5 6.7-1.4 0-1.1.2-2.7.5-3.5.4-1-.3-1.4-3-1.5-3.9-.2-5.8-.9-5.1-2 .3-.6 1-5.1 2.1-13.9.2-1.3.6-4.1 1-6.3.7-3.9.6-4-2.4-4-1.7 0-3.1.3-3.2.7 0 .5-.2 1.7-.5 2.8-.2 1.1-.6 4-1 6.5-.3 2.5-.8 5.4-1 6.5-.2 1.1-.7 4.2-1 7-.7 5.3-1.4 7.3-1.4 3.8 0-1.7-.8-2.3-4-2.8-3.4-.6-4-1.1-4-3.1 0-1.3.6-2.4 1.3-2.5.6 0 2.6-.2 4.2-.2 2.6-.2 3-.6 3.3-3.5.3-3.1.2-3.2-3.6-3.2-3.7 0-3.8-.1-3.4-3 .4-2.8.7-3 4.8-3 4.2 0 4.4-.1 4.4-2.9 0-2-.6-3.1-1.7-3.5-3.4-.9-11.2-.5-11.9.6zM240 106.7c-1.6.6-7 6-7.1 7.1 0 .4-.3 1.8-.6 3.2-.4 1.4-.6 5.3-.6 8.8 0 7.6 2 10.2 8.2 10.2 4.5 0 10-2.7 9.9-5 0-.8.3-4.1.7-7.3.7-6.2.7-6.3-5.4-5.1-2.6.6-3.1 1.1-3.1 3.5 0 1.8.5 2.9 1.4 2.9 1.8 0 1 3.6-1 4.4-5.7 2.2-6.6-8.1-1.3-14.9 1.9-2.3 2.7-2.6 6-2.1 3 .4 3.9.2 4-.9.1-.8.2-2.1.3-2.8.1-.6-.3-1.5-.9-1.9-1.1-.9-8.3-.9-10.5-.1zM196.3 109.7c-.4 1.6-.8 3-.8 3.3-.1.3-.4 1.2-.8 2-1.7 4.5-5 13.7-5.2 15-.2.8-.4 1.6-.5 1.7-.2.2-.3.7-.4 1.2 0 .5-.4 1.3-.8 1.7-.5.4-.8 1.8-.8 3.1 0 1.9.5 2.3 2.8 2.3 2.2 0 3.1-.7 4.3-3.3 1-2.4 2-3.2 3.9-3.2 1.4 0 2.6.6 2.6 1.2.1.7.2 2.4.3 3.7.1 2.2.8 2.5 5.4 1.7.7-.1.1-15.5-.9-20.4-.2-1.2-.4-4.5-.5-7.4l-.2-5.3h-3.8c-3.4 0-4 .4-4.6 2.7zm3.3 15.9c-.3.9-1 1.2-1.6.9-.7-.4-.6-1.4.2-2.8.6-1.2 1.1-2.3 1-2.5-.1-.1-.1-.8-.1-1.5.1-.6.4.1.6 1.6.3 1.6.2 3.5-.1 4.3zM212.3 108.2c0 1.3-1.1 11-1.9 16.5-.2 1.6-.6 5.6-1 9-.6 6.3-.6 6.3 2 6.3 1.5 0 2.8-.6 3.1-1.3.4-1.3 1.4-9.1 1.4-12 .1-2.8 1.9-1.1 2.6 2.6 1.6 8.1 2.5 9.7 5.5 9.7 3.3 0 3.6-.6 4.5-10 1.2-12.1 1.5-14.5 2.1-18.3.6-3.6.5-3.7-2.5-3.7-1.8 0-3.1.5-3.1 1.2-.1 2.6-1.3 13.3-1.5 13.6-.1.1-1.1-3-2.1-7-1.9-7.2-1.9-7.3-5.5-7.6-2.4-.2-3.6.1-3.6 1zM105 239.6c0 .8-.4 1.3-.9.9-.8-.4-1.8 1.3-2.6 4.5-.1.3-.7 1.8-1.3 3.3-.7 1.6-1.2 5-1.2 7.6 0 4.1.7 6 4.8 12.2 4.7 7.1 8.6 11.7 12.8 14.9 7.2 5.6 9.4 7.1 9.4 6.4 0-.5.4-.4.8.1 1.1 1.5 15.8 8.3 21.2 9.8.3.1 1.6 1.5 3 3.2 1.4 1.6 2.9 3.3 3.5 3.7.5.4.6.8.1.8-.6 0-.1.8 1 1.9 1 1 2.9 3.2 4.1 4.7 12 15.5 14.8 19 15.7 19.6.7.5.7.8.1.8s-.6.3 0 .8c.6.4 4.3 4.9 8.4 10 4 5 8.3 9.4 9.4 9.7 5.3 1.2 11.7 1.4 11.7.3 0-.6.3-.8.6-.5.8.7 9.4-7.7 9.4-9.2 0-.5 1.4-2.3 3-3.9 1.7-1.7 3-3.5 3-4.1 0-.6.5-1.1 1-1.1.6 0 1-.6 1-1.4 0-.8.4-1.6.8-1.8.5-.2 3.3-3.5 6.2-7.3 3-3.9 5.9-7.3 6.4-7.6.5-.4.5-1.2.1-1.9-.5-.8-.4-1.1.3-.6.6.3 3.2-2.4 6-6.4 5.9-8.4 7.8-10 16-12.9 3.4-1.2 9.3-4 13-6.1 6.7-3.9 18.2-14 18.2-16 0-.5.4-1 .8-1 1.1 0 7.9-11.9 8.7-15.2.7-2.7-1.2-9.9-4.2-16.6-1.2-2.5-2.2-3.2-4.2-3.2-3.1 0-5.2 2.1-9.9 9.6-2.8 4.5-13.3 15.4-14.8 15.4-.3 0-2.8 1.5-5.7 3.3-2.9 1.8-6.5 3.8-8.2 4.5-1.6.6-4.3 1.7-6 2.3-1.6.7-4.1 1.4-5.5 1.6-1.3.2-3 .9-3.7 1.5-.7.6-1.3.8-1.3.5 0-.3-1.7-.1-3.7.5-9.1 2.2-21 3.3-37.8 3.2-12.8 0-16.7-.4-26.8-2.8-17.9-4.1-32.5-10.8-41.3-18.9-1.8-1.5-4-3.5-5-4.3-1.1-.9-1.2-1.2-.4-.8.8.3.4-.5-1-1.9-3.7-3.8-4.4-4.8-6.3-8.8-.9-2-2.4-4-3.3-4.3-2.8-1.1-5.4-.6-5.4 1zm6.7 18.2c-.6 2 19.6 18.8 21.3 17.7.5-.3 1-.1 1.2.4.1.5 2.5 2 5.3 3.3 4 1.9 5 2.9 5.6 5.5.5 2.8.4 3.1-1 2.4-.9-.5-3.4-1.6-5.6-2.6-2.2-1-5.1-2.6-6.5-3.6-1.4-.9-2.9-1.8-3.5-2-2.5-.8-16.6-14.9-15-14.9.4 0-.2-1.2-1.3-2.8-3.2-4.6-3.4-5.2-1.8-4.6.9.3 1.4.9 1.3 1.2zm175.1 2.9c-1.4 2.1-2.5 4-2.4 4.3.1.7-10.2 10.4-14.5 13.6-3.2 2.5-13 7.4-15.6 8-1.7.3-1.6-3.1.1-4.5.8-.6 4.1-2.5 7.5-4.1 3.4-1.7 6.1-3.5 6.1-4.2 0-.6.3-.9.6-.5.9.9 11.3-7.3 16-12.6 4.6-5.3 5.7-5.3 2.2 0zM161 286.4c13.1 2.9 21 3.7 35.5 4 13.5.3 22-.2 31-1.8 1.7-.3 4.8-.8 7-1.2 2.2-.3 4.5-1 5-1.4 1.3-1.1 3 0 3 2-.1 2.3-2.6 8-3.6 8-.5 0-.9.5-.9 1.1 0 .6-1.6 2.7-3.5 4.7s-3.8 4.5-4.1 5.4c-.3 1-.9 1.8-1.4 1.8-.5 0-1.9 1.7-3.1 3.7-1.3 2.1-3.4 4.8-4.6 6.1-1.3 1.3-2 2.8-1.7 3.4.4.7.2.8-.4.4-.7-.4-1.8.7-2.8 2.5-.9 1.8-2.6 4.2-3.8 5.4-3.5 3.7-5.6 6.5-5.6 7.5 0 .6-.3 1-.7 1-.5 0-1.7 1.4-2.8 3-3.9 5.8-5.8 4.6-18.5-12-6.3-8.3-11.8-15-12.2-15-.4 0-.8-.5-.8-1.1 0-.9-6.2-9.2-13.4-18-.7-.9-1.6-2.9-2-4.5-.4-1.6-.9-3.7-1.2-4.7-.5-1.5-.2-1.8 1.3-1.3 1 .3 2.9.7 4.3 1z"/><path d="M181.3 240.7c-.7.2-1.3 1.3-1.3 2.4 0 1.2-.5 1.6-1.5 1.3-1.1-.5-1.5.1-1.5 2 0 1.4.4 2.6.9 2.6s.5 1.7 0 4c-1.2 5.4-.2 8.9 2.9 10.1 3.5 1.3 5.2.5 5.2-2.6 0-1.5-.4-2.4-1-2-.6.3-1-.4-1-1.7 0-4.1 1.1-6.6 3.1-7.1 2.3-.6 2.6-4.7.4-4.7-.9 0-1.5-.9-1.5-2.5 0-2.5-1.6-3.1-4.7-1.8zM215.9 244.4c-.3.3-2.3.6-4.5.7l-4.1.3-1.1 7.5c-.7 4.2-1.5 10.2-1.8 13.4l-.7 5.8 3.2-.3c2.5-.2 3.1-.7 3.1-2.4 0-3.8 1.1-5.4 3.6-5.4 1.3 0 2.4-.5 2.4-1 0-.6.6-1 1.3-1 1.8 0 4.5-5 5.3-9.7.5-3.4.2-4.5-1.5-6.2-2-2-4.2-2.7-5.2-1.7zm.1 8.4c0 1.6-3.3 6.2-4.5 6.2-.5 0 1.1-5.5 2-7 1-1.6 2.5-1.2 2.5.8z"/><path d="M194 245.7c-6.2 2.5-9 11.5-5 16.5 1.7 2.3 2.9 2.8 6.5 2.8 3.7 0 4.7-.4 6.6-3.1 2.9-4.1 3.4-11 1.1-13.9-1.7-2.1-6.5-3.3-9.2-2.3zm4 8.8c0 2.3-2.6 5.3-3.6 4.2-.4-.3-.3-2.2 0-4.1.5-2.5 1.1-3.4 2.1-2.9.8.3 1.5 1.5 1.5 2.8z"/></svg>